<mxfile host="app.diagrams.net" modified="2024-06-23T14:41:20.037Z" agent="Mozilla/5.0 (Windows NT 10.0; Win64; x64) AppleWebKit/537.36 (KHTML, like Gecko) Chrome/126.0.0.0 Safari/537.36" etag="Km6Oi9I-oJ5nQcjQA-nd" version="24.6.2" type="device">
  <diagram id="R2lEEEUBdFMjLlhIrx00" name="Page-1">
    <mxGraphModel dx="1229" dy="629" grid="1" gridSize="10" guides="1" tooltips="1" connect="1" arrows="1" fold="1" page="1" pageScale="1" pageWidth="850" pageHeight="1100" math="0" shadow="0" extFonts="Permanent Marker^https://fonts.googleapis.com/css?family=Permanent+Marker">
      <root>
        <mxCell id="0" />
        <mxCell id="1" parent="0" />
        <mxCell id="vGuo_JRTg34PAEIXhD7t-17" value="annoucement" style="swimlane;childLayout=stackLayout;horizontal=1;startSize=40;horizontalStack=0;rounded=1;fontSize=14;fontStyle=0;strokeWidth=2;resizeParent=0;resizeLast=1;shadow=0;dashed=0;align=center;arcSize=4;whiteSpace=wrap;html=1;" parent="1" vertex="1">
          <mxGeometry x="120" y="60" width="140" height="120" as="geometry" />
        </mxCell>
        <mxCell id="vGuo_JRTg34PAEIXhD7t-18" value="id&lt;div&gt;image&lt;/div&gt;&lt;div&gt;description&lt;/div&gt;&lt;div&gt;status&lt;/div&gt;" style="align=left;strokeColor=none;fillColor=none;spacingLeft=4;fontSize=12;verticalAlign=top;resizable=0;rotatable=0;part=1;html=1;" parent="vGuo_JRTg34PAEIXhD7t-17" vertex="1">
          <mxGeometry y="40" width="140" height="80" as="geometry" />
        </mxCell>
        <mxCell id="vGuo_JRTg34PAEIXhD7t-19" value="product" style="swimlane;childLayout=stackLayout;horizontal=1;startSize=40;horizontalStack=0;rounded=1;fontSize=14;fontStyle=0;strokeWidth=2;resizeParent=0;resizeLast=1;shadow=0;dashed=0;align=center;arcSize=4;whiteSpace=wrap;html=1;" parent="1" vertex="1">
          <mxGeometry x="530" y="400" width="110" height="130" as="geometry" />
        </mxCell>
        <mxCell id="vGuo_JRTg34PAEIXhD7t-20" value="id&lt;div&gt;type&lt;/div&gt;&lt;div&gt;description&lt;br&gt;&lt;/div&gt;&lt;div&gt;image&lt;/div&gt;&lt;div&gt;price&lt;/div&gt;" style="align=left;strokeColor=none;fillColor=none;spacingLeft=4;fontSize=12;verticalAlign=top;resizable=0;rotatable=0;part=1;html=1;" parent="vGuo_JRTg34PAEIXhD7t-19" vertex="1">
          <mxGeometry y="40" width="110" height="90" as="geometry" />
        </mxCell>
        <mxCell id="vGuo_JRTg34PAEIXhD7t-21" value="brand" style="swimlane;childLayout=stackLayout;horizontal=1;startSize=40;horizontalStack=0;rounded=1;fontSize=14;fontStyle=0;strokeWidth=2;resizeParent=0;resizeLast=1;shadow=0;dashed=0;align=center;arcSize=4;whiteSpace=wrap;html=1;" parent="1" vertex="1">
          <mxGeometry x="530" y="85" width="120" height="125" as="geometry" />
        </mxCell>
        <mxCell id="vGuo_JRTg34PAEIXhD7t-22" value="id&lt;div&gt;name&lt;/div&gt;&lt;div&gt;image&lt;/div&gt;&lt;div&gt;status&lt;/div&gt;&lt;div&gt;&lt;span style=&quot;background-color: initial;&quot;&gt;url&lt;/span&gt;&lt;/div&gt;" style="align=left;strokeColor=none;fillColor=none;spacingLeft=4;fontSize=12;verticalAlign=top;resizable=0;rotatable=0;part=1;html=1;" parent="vGuo_JRTg34PAEIXhD7t-21" vertex="1">
          <mxGeometry y="40" width="120" height="85" as="geometry" />
        </mxCell>
        <mxCell id="vGuo_JRTg34PAEIXhD7t-23" value="service" style="swimlane;childLayout=stackLayout;horizontal=1;startSize=40;horizontalStack=0;rounded=1;fontSize=14;fontStyle=0;strokeWidth=2;resizeParent=0;resizeLast=1;shadow=0;dashed=0;align=center;arcSize=4;whiteSpace=wrap;html=1;" parent="1" vertex="1">
          <mxGeometry x="130" y="350" width="120" height="140" as="geometry" />
        </mxCell>
        <mxCell id="vGuo_JRTg34PAEIXhD7t-24" value="id&lt;div&gt;title&lt;/div&gt;&lt;div&gt;description&lt;br&gt;&lt;/div&gt;&lt;div&gt;icon&lt;/div&gt;&lt;div&gt;status&lt;/div&gt;" style="align=left;strokeColor=none;fillColor=none;spacingLeft=4;fontSize=12;verticalAlign=top;resizable=0;rotatable=0;part=1;html=1;" parent="vGuo_JRTg34PAEIXhD7t-23" vertex="1">
          <mxGeometry y="40" width="120" height="100" as="geometry" />
        </mxCell>
        <mxCell id="vGuo_JRTg34PAEIXhD7t-25" value="user" style="swimlane;childLayout=stackLayout;horizontal=1;startSize=40;horizontalStack=0;rounded=1;fontSize=14;fontStyle=0;strokeWidth=2;resizeParent=0;resizeLast=1;shadow=0;dashed=0;align=center;arcSize=4;whiteSpace=wrap;html=1;" parent="1" vertex="1">
          <mxGeometry x="530" y="240" width="110" height="140" as="geometry" />
        </mxCell>
        <mxCell id="vGuo_JRTg34PAEIXhD7t-26" value="id&lt;div&gt;email&lt;/div&gt;&lt;div&gt;first_name&lt;/div&gt;&lt;div&gt;last_name&lt;/div&gt;&lt;div&gt;password&lt;/div&gt;&lt;div&gt;admin&lt;/div&gt;" style="align=left;strokeColor=none;fillColor=none;spacingLeft=4;fontSize=12;verticalAlign=top;resizable=0;rotatable=0;part=1;html=1;" parent="vGuo_JRTg34PAEIXhD7t-25" vertex="1">
          <mxGeometry y="40" width="110" height="100" as="geometry" />
        </mxCell>
        <mxCell id="vGuo_JRTg34PAEIXhD7t-27" value="service_order" style="swimlane;childLayout=stackLayout;horizontal=1;startSize=40;horizontalStack=0;rounded=1;fontSize=14;fontStyle=0;strokeWidth=2;resizeParent=0;resizeLast=1;shadow=0;dashed=0;align=center;arcSize=4;whiteSpace=wrap;html=1;" parent="1" vertex="1">
          <mxGeometry x="310" y="150" width="160" height="160" as="geometry" />
        </mxCell>
        <mxCell id="vGuo_JRTg34PAEIXhD7t-28" value="id&lt;div&gt;id_user&lt;/div&gt;&lt;div&gt;id_brand&lt;/div&gt;&lt;div&gt;phone&lt;/div&gt;&lt;div&gt;type&lt;/div&gt;&lt;div&gt;model&lt;/div&gt;&lt;div&gt;description&lt;/div&gt;" style="align=left;strokeColor=none;fillColor=none;spacingLeft=4;fontSize=12;verticalAlign=top;resizable=0;rotatable=0;part=1;html=1;" parent="vGuo_JRTg34PAEIXhD7t-27" vertex="1">
          <mxGeometry y="40" width="160" height="120" as="geometry" />
        </mxCell>
        <mxCell id="vGuo_JRTg34PAEIXhD7t-29" value="" style="edgeStyle=entityRelationEdgeStyle;fontSize=12;html=1;endArrow=ERzeroToMany;startArrow=ERmandOne;rounded=0;exitX=0;exitY=0.25;exitDx=0;exitDy=0;entryX=1;entryY=0.5;entryDx=0;entryDy=0;" parent="1" source="vGuo_JRTg34PAEIXhD7t-26" target="vGuo_JRTg34PAEIXhD7t-28" edge="1">
          <mxGeometry width="100" height="100" relative="1" as="geometry">
            <mxPoint x="470" y="290" as="sourcePoint" />
            <mxPoint x="320" y="500" as="targetPoint" />
          </mxGeometry>
        </mxCell>
        <mxCell id="vGuo_JRTg34PAEIXhD7t-30" value="" style="edgeStyle=entityRelationEdgeStyle;fontSize=12;html=1;endArrow=ERzeroToMany;startArrow=ERmandOne;rounded=0;exitX=-0.007;exitY=0.337;exitDx=0;exitDy=0;entryX=1;entryY=0.328;entryDx=0;entryDy=0;exitPerimeter=0;entryPerimeter=0;" parent="1" source="vGuo_JRTg34PAEIXhD7t-22" target="vGuo_JRTg34PAEIXhD7t-28" edge="1">
          <mxGeometry width="100" height="100" relative="1" as="geometry">
            <mxPoint x="465" y="555" as="sourcePoint" />
            <mxPoint x="360" y="500" as="targetPoint" />
          </mxGeometry>
        </mxCell>
        <mxCell id="vGuo_JRTg34PAEIXhD7t-31" value="contact" style="swimlane;childLayout=stackLayout;horizontal=1;startSize=40;horizontalStack=0;rounded=1;fontSize=14;fontStyle=0;strokeWidth=2;resizeParent=0;resizeLast=1;shadow=0;dashed=0;align=center;arcSize=4;whiteSpace=wrap;html=1;" parent="1" vertex="1">
          <mxGeometry x="120" y="210" width="140" height="120" as="geometry" />
        </mxCell>
        <mxCell id="vGuo_JRTg34PAEIXhD7t-32" value="id&lt;div&gt;name&lt;/div&gt;&lt;div&gt;email&lt;/div&gt;&lt;div&gt;subject&lt;/div&gt;&lt;div&gt;message&lt;/div&gt;" style="align=left;strokeColor=none;fillColor=none;spacingLeft=4;fontSize=12;verticalAlign=top;resizable=0;rotatable=0;part=1;html=1;" parent="vGuo_JRTg34PAEIXhD7t-31" vertex="1">
          <mxGeometry y="40" width="140" height="80" as="geometry" />
        </mxCell>
      </root>
    </mxGraphModel>
  </diagram>
</mxfile>
